<svg xmlns="http://www.w3.org/2000/svg" xmlns:xlink="http://www.w3.org/1999/xlink" width="1598pt" height="962pt" viewBox="0 0 1598.09 962"><g id="graph0" class="graph" transform="scale(1 1) rotate(0) translate(4 958)"><title>G</title><polygon fill="#fff" stroke="transparent" points="-4 4 -4 -958 1594.088 -958 1594.088 4 -4 4"/><g id="node1" class="node"><title>application</title><g id="a_node1"><a xlink:href="https://github.com/jupyterlab/jupyterlab/tree/master/packages/application" xlink:title="application"><ellipse cx="245.088" cy="-512.293" fill="none" stroke="#000" rx="50.091" ry="18"/><text x="245.088" y="-508.593" fill="#000" font-family="Times,serif" font-size="14" text-anchor="middle">application</text></a></g></g><g id="node2" class="node"><title>docregistry</title><g id="a_node2"><a xlink:href="https://github.com/jupyterlab/jupyterlab/tree/master/packages/docregistry" xlink:title="docregistry"><ellipse cx="409.088" cy="-616.293" fill="none" stroke="#000" rx="50.091" ry="18"/><text x="409.088" y="-612.593" fill="#000" font-family="Times,serif" font-size="14" text-anchor="middle">docregistry</text></a></g></g><g id="edge1" class="edge"><title>application-&gt;docregistry</title><path fill="none" stroke="#000" d="M272.6792,-527.5777C286.4087,-535.3434 303.1722,-545.0674 317.8812,-554.2927 338.0476,-566.9408 360.1383,-581.9271 377.5277,-593.9972"/><polygon fill="#000" stroke="#000" points="375.953 -597.166 386.158 -600.015 379.957 -591.424 375.953 -597.166"/></g><g id="node7" class="node"><title>rendermime</title><g id="a_node7"><a xlink:href="https://github.com/jupyterlab/jupyterlab/tree/master/packages/rendermime" xlink:title="rendermime"><ellipse cx="696.088" cy="-372.293" fill="none" stroke="#000" rx="53.891" ry="18"/><text x="696.088" y="-368.593" fill="#000" font-family="Times,serif" font-size="14" text-anchor="middle">rendermime</text></a></g></g><g id="edge4" class="edge"><title>docregistry-&gt;rendermime</title><path fill="none" stroke="#000" d="M435.0619,-600.7883C474.7934,-576.2525 551.6931,-525.4603 605.3829,-469.2927 625.4442,-448.3055 622.4003,-436.5803 642.1424,-415.2927 648.7811,-408.1343 656.6616,-401.1748 664.32,-395.0134"/><polygon fill="#000" stroke="#000" points="666.731 -397.572 672.474 -388.669 662.432 -392.048 666.731 -397.572"/></g><g id="node3" class="node"><title>apputils</title><g id="a_node3"><a xlink:href="https://github.com/jupyterlab/jupyterlab/tree/master/packages/apputils" xlink:title="apputils"><ellipse cx="1239.088" cy="-232.293" fill="none" stroke="#000" rx="38.194" ry="18"/><text x="1239.088" y="-228.593" fill="#000" font-family="Times,serif" font-size="14" text-anchor="middle">apputils</text></a></g></g><g id="node4" class="node"><title>services</title><g id="a_node4"><a xlink:href="https://github.com/jupyterlab/jupyterlab/tree/master/packages/services" xlink:title="services"><ellipse cx="1386.088" cy="-283.293" fill="none" stroke="#000" rx="38.993" ry="18"/><text x="1386.088" y="-279.593" fill="#000" font-family="Times,serif" font-size="14" text-anchor="middle">services</text></a></g></g><g id="edge2" class="edge"><title>apputils-&gt;services</title><path fill="none" stroke="#000" d="M1270.2626,-243.1085C1292.0169,-250.6559 1321.2753,-260.8068 1344.9422,-269.0177"/><polygon fill="#000" stroke="#000" points="1344.11 -272.433 1354.705 -272.405 1346.404 -265.82 1344.11 -272.433"/></g><g id="node5" class="node"><title>ui-components</title><g id="a_node5"><a xlink:href="https://github.com/jupyterlab/jupyterlab/tree/master/packages/ui-components" xlink:title="ui-components"><ellipse cx="1386.088" cy="-213.293" fill="none" stroke="#000" rx="63.889" ry="18"/><text x="1386.088" y="-209.593" fill="#000" font-family="Times,serif" font-size="14" text-anchor="middle">ui-components</text></a></g></g><g id="edge3" class="edge"><title>apputils-&gt;ui-components</title><path fill="none" stroke="#000" d="M1276.182,-227.4982C1288.9666,-225.8457 1303.7173,-223.9392 1318.1777,-222.0702"/><polygon fill="#000" stroke="#000" points="1318.646 -225.539 1328.115 -220.786 1317.748 -218.597 1318.646 -225.539"/></g><g id="node6" class="node"><title>coreutils</title><g id="a_node6"><a xlink:href="https://github.com/jupyterlab/jupyterlab/tree/master/packages/coreutils" xlink:title="coreutils"><ellipse cx="1538.088" cy="-381.293" fill="none" stroke="#000" rx="40.893" ry="18"/><text x="1538.088" y="-377.593" fill="#000" font-family="Times,serif" font-size="14" text-anchor="middle">coreutils</text></a></g></g><g id="edge7" class="edge"><title>services-&gt;coreutils</title><path fill="none" stroke="#000" d="M1408.8436,-297.9643C1434.6622,-314.6105 1476.9559,-341.8788 1506.0897,-360.6624"/><polygon fill="#000" stroke="#000" points="1504.375 -363.721 1514.676 -366.198 1508.168 -357.838 1504.375 -363.721"/></g><g id="node10" class="node"><title>observables</title><g id="a_node10"><a xlink:href="https://github.com/jupyterlab/jupyterlab/tree/master/packages/observables" xlink:title="observables"><ellipse cx="1538.088" cy="-292.293" fill="none" stroke="#000" rx="51.991" ry="18"/><text x="1538.088" y="-288.593" fill="#000" font-family="Times,serif" font-size="14" text-anchor="middle">observables</text></a></g></g><g id="edge8" class="edge"><title>services-&gt;observables</title><path fill="none" stroke="#000" d="M1424.837,-285.587C1440.5716,-286.5187 1459.1363,-287.6179 1476.6327,-288.6539"/><polygon fill="#000" stroke="#000" points="1476.592 -292.158 1486.781 -289.255 1477.006 -285.17 1476.592 -292.158"/></g><g id="node8" class="node"><title>rendermime-interfaces</title><g id="a_node8"><a xlink:href="https://github.com/jupyterlab/jupyterlab/tree/master/packages/rendermime-interfaces" xlink:title="rendermime-interfaces"><ellipse cx="877.088" cy="-442.293" fill="none" stroke="#000" rx="90.984" ry="18"/><text x="877.088" y="-438.593" fill="#000" font-family="Times,serif" font-size="14" text-anchor="middle">rendermime-interfaces</text></a></g></g><g id="edge5" class="edge"><title>rendermime-&gt;rendermime-interfaces</title><path fill="none" stroke="#000" d="M731.416,-385.9556C758.3374,-396.3672 795.792,-410.8524 825.9805,-422.5275"/><polygon fill="#000" stroke="#000" points="824.915 -425.868 835.504 -426.211 827.44 -419.339 824.915 -425.868"/></g><g id="node9" class="node"><title>codemirror</title><g id="a_node9"><a xlink:href="https://github.com/jupyterlab/jupyterlab/tree/master/packages/codemirror" xlink:title="codemirror"><ellipse cx="877.088" cy="-372.293" fill="none" stroke="#000" rx="50.091" ry="18"/><text x="877.088" y="-368.593" fill="#000" font-family="Times,serif" font-size="14" text-anchor="middle">codemirror</text></a></g></g><g id="edge6" class="edge"><title>rendermime-&gt;codemirror</title><path fill="none" stroke="#000" d="M750.3936,-372.2927C771.2441,-372.2927 795.1633,-372.2927 816.5621,-372.2927"/><polygon fill="#000" stroke="#000" points="816.84 -375.793 826.84 -372.293 816.84 -368.793 816.84 -375.793"/></g><g id="node15" class="node"><title>statusbar</title><g id="a_node15"><a xlink:href="https://github.com/jupyterlab/jupyterlab/tree/master/packages/statusbar" xlink:title="statusbar"><ellipse cx="1079.088" cy="-372.293" fill="none" stroke="#000" rx="42.494" ry="18"/><text x="1079.088" y="-368.593" fill="#000" font-family="Times,serif" font-size="14" text-anchor="middle">statusbar</text></a></g></g><g id="edge14" class="edge"><title>codemirror-&gt;statusbar</title><path fill="none" stroke="#000" d="M927.2798,-372.2927C957.5135,-372.2927 995.9605,-372.2927 1026.5975,-372.2927"/><polygon fill="#000" stroke="#000" points="1026.665 -375.793 1036.665 -372.293 1026.665 -368.793 1026.665 -375.793"/></g><g id="node11" class="node"><title>attachments</title><g id="a_node11"><a xlink:href="https://github.com/jupyterlab/jupyterlab/tree/master/packages/attachments" xlink:title="attachments"><ellipse cx="552.088" cy="-372.293" fill="none" stroke="#000" rx="53.091" ry="18"/><text x="552.088" y="-368.593" fill="#000" font-family="Times,serif" font-size="14" text-anchor="middle">attachments</text></a></g></g><g id="edge9" class="edge"><title>attachments-&gt;rendermime</title><path fill="none" stroke="#000" d="M605.7079,-372.2927C614.214,-372.2927 623.0869,-372.2927 631.807,-372.2927"/><polygon fill="#000" stroke="#000" points="631.942 -375.793 641.942 -372.293 631.942 -368.793 631.942 -375.793"/></g><g id="node12" class="node"><title>cells</title><g id="a_node12"><a xlink:href="https://github.com/jupyterlab/jupyterlab/tree/master/packages/cells" xlink:title="cells"><ellipse cx="409.088" cy="-372.293" fill="none" stroke="#000" rx="27" ry="18"/><text x="409.088" y="-368.593" fill="#000" font-family="Times,serif" font-size="14" text-anchor="middle">cells</text></a></g></g><g id="edge10" class="edge"><title>cells-&gt;attachments</title><path fill="none" stroke="#000" d="M436.3215,-372.2927C451.1585,-372.2927 470.1883,-372.2927 488.5148,-372.2927"/><polygon fill="#000" stroke="#000" points="488.593 -375.793 498.593 -372.293 488.593 -368.793 488.593 -375.793"/></g><g id="node13" class="node"><title>outputarea</title><g id="a_node13"><a xlink:href="https://github.com/jupyterlab/jupyterlab/tree/master/packages/outputarea" xlink:title="outputarea"><ellipse cx="552.088" cy="-442.293" fill="none" stroke="#000" rx="48.192" ry="18"/><text x="552.088" y="-438.593" fill="#000" font-family="Times,serif" font-size="14" text-anchor="middle">outputarea</text></a></g></g><g id="edge11" class="edge"><title>cells-&gt;outputarea</title><path fill="none" stroke="#000" d="M431.118,-383.0768C453.1238,-393.8488 487.392,-410.6235 513.8455,-423.5727"/><polygon fill="#000" stroke="#000" points="512.323 -426.724 522.844 -427.977 515.401 -420.437 512.323 -426.724"/></g><g id="edge15" class="edge"><title>outputarea-&gt;rendermime</title><path fill="none" stroke="#000" d="M581.5757,-427.9582C603.0774,-417.506 632.4597,-403.223 656.0776,-391.742"/><polygon fill="#000" stroke="#000" points="657.683 -394.853 665.146 -387.334 654.622 -388.558 657.683 -394.853"/></g><g id="node14" class="node"><title>codeeditor</title><g id="a_node14"><a xlink:href="https://github.com/jupyterlab/jupyterlab/tree/master/packages/codeeditor" xlink:title="codeeditor"><ellipse cx="1239.088" cy="-381.293" fill="none" stroke="#000" rx="48.192" ry="18"/><text x="1239.088" y="-377.593" fill="#000" font-family="Times,serif" font-size="14" text-anchor="middle">codeeditor</text></a></g></g><g id="edge12" class="edge"><title>codeeditor-&gt;coreutils</title><path fill="none" stroke="#000" d="M1287.4595,-381.2927C1342.2292,-381.2927 1431.0887,-381.2927 1486.9685,-381.2927"/><polygon fill="#000" stroke="#000" points="1487.003 -384.793 1497.003 -381.293 1487.003 -377.793 1487.003 -384.793"/></g><g id="edge13" class="edge"><title>codeeditor-&gt;observables</title><path fill="none" stroke="#000" d="M1276.9562,-370.0208C1330.7307,-354.0143 1429.2738,-324.6821 1488.7202,-306.9873"/><polygon fill="#000" stroke="#000" points="1490.043 -310.245 1498.629 -304.038 1488.046 -303.536 1490.043 -310.245"/></g><g id="edge16" class="edge"><title>statusbar-&gt;apputils</title><path fill="none" stroke="#000" d="M1107.74,-358.8529C1122.4658,-351.2482 1140.2554,-340.9366 1154.481,-329.2927 1180.3179,-308.1447 1204.8163,-278.6401 1220.7375,-257.7375"/><polygon fill="#000" stroke="#000" points="1223.615 -259.733 1226.811 -249.632 1218.014 -255.536 1223.615 -259.733"/></g><g id="edge17" class="edge"><title>statusbar-&gt;codeeditor</title><path fill="none" stroke="#000" d="M1121.1258,-374.6573C1139.4966,-375.6907 1161.3443,-376.9196 1181.2151,-378.0374"/><polygon fill="#000" stroke="#000" points="1181.216 -381.543 1191.397 -378.61 1181.61 -374.554 1181.216 -381.543"/></g><g id="node16" class="node"><title>completer</title><g id="a_node16"><a xlink:href="https://github.com/jupyterlab/jupyterlab/tree/master/packages/completer" xlink:title="completer"><ellipse cx="1079.088" cy="-442.293" fill="none" stroke="#000" rx="46.292" ry="18"/><text x="1079.088" y="-438.593" fill="#000" font-family="Times,serif" font-size="14" text-anchor="middle">completer</text></a></g></g><g id="edge18" class="edge"><title>completer-&gt;apputils</title><path fill="none" stroke="#000" d="M1111.2577,-429.1379C1125.8205,-421.9697 1142.4302,-411.9538 1154.481,-399.2927 1193.5363,-358.2591 1218.6296,-295.6885 1230.6689,-259.9282"/><polygon fill="#000" stroke="#000" points="1234.079 -260.761 1233.853 -250.168 1227.424 -258.589 1234.079 -260.761"/></g><g id="edge19" class="edge"><title>completer-&gt;codeeditor</title><path fill="none" stroke="#000" d="M1112.2398,-429.6534C1136.4517,-420.4226 1169.5031,-407.8218 1195.7981,-397.7968"/><polygon fill="#000" stroke="#000" points="1197.054 -401.064 1205.151 -394.231 1194.56 -394.523 1197.054 -401.064"/></g><g id="node17" class="node"><title>console</title><g id="a_node17"><a xlink:href="https://github.com/jupyterlab/jupyterlab/tree/master/packages/console" xlink:title="console"><ellipse cx="245.088" cy="-302.293" fill="none" stroke="#000" rx="37.894" ry="18"/><text x="245.088" y="-298.593" fill="#000" font-family="Times,serif" font-size="14" text-anchor="middle">console</text></a></g></g><g id="edge20" class="edge"><title>console-&gt;cells</title><path fill="none" stroke="#000" d="M273.2803,-314.3261C302.1211,-326.6362 346.8616,-345.7328 377.0318,-358.6103"/><polygon fill="#000" stroke="#000" points="375.705 -361.85 386.277 -362.556 378.454 -355.412 375.705 -361.85"/></g><g id="node18" class="node"><title>csvviewer</title><g id="a_node18"><a xlink:href="https://github.com/jupyterlab/jupyterlab/tree/master/packages/csvviewer" xlink:title="csvviewer"><ellipse cx="245.088" cy="-442.293" fill="none" stroke="#000" rx="46.292" ry="18"/><text x="245.088" y="-438.593" fill="#000" font-family="Times,serif" font-size="14" text-anchor="middle">csvviewer</text></a></g></g><g id="edge21" class="edge"><title>csvviewer-&gt;docregistry</title><path fill="none" stroke="#000" d="M275.0313,-456.2254C289.0066,-463.6252 305.2933,-473.6108 317.8812,-485.2927 351.0962,-516.1169 379.0905,-561.0096 394.9824,-589.4231"/><polygon fill="#000" stroke="#000" points="392.019 -591.299 399.898 -598.383 398.157 -587.932 392.019 -591.299"/></g><g id="node19" class="node"><title>docmanager</title><g id="a_node19"><a xlink:href="https://github.com/jupyterlab/jupyterlab/tree/master/packages/docmanager" xlink:title="docmanager"><ellipse cx="245.088" cy="-930.293" fill="none" stroke="#000" rx="53.891" ry="18"/><text x="245.088" y="-926.593" fill="#000" font-family="Times,serif" font-size="14" text-anchor="middle">docmanager</text></a></g></g><g id="edge22" class="edge"><title>docmanager-&gt;docregistry</title><path fill="none" stroke="#000" d="M280.3169,-916.4529C293.6595,-909.6978 307.9979,-900.3777 317.8812,-888.2927 378.5005,-814.1689 399.5101,-697.9719 406.2144,-644.7007"/><polygon fill="#000" stroke="#000" points="409.708 -644.962 407.405 -634.621 402.756 -644.141 409.708 -644.962"/></g><g id="node20" class="node"><title>documentsearch</title><g id="a_node20"><a xlink:href="https://github.com/jupyterlab/jupyterlab/tree/master/packages/documentsearch" xlink:title="documentsearch"><ellipse cx="68.088" cy="-651.293" fill="none" stroke="#000" rx="68.489" ry="18"/><text x="68.088" y="-647.593" fill="#000" font-family="Times,serif" font-size="14" text-anchor="middle">documentsearch</text></a></g></g><g id="node21" class="node"><title>fileeditor</title><g id="a_node21"><a xlink:href="https://github.com/jupyterlab/jupyterlab/tree/master/packages/fileeditor" xlink:title="fileeditor"><ellipse cx="245.088" cy="-861.293" fill="none" stroke="#000" rx="42.793" ry="18"/><text x="245.088" y="-857.593" fill="#000" font-family="Times,serif" font-size="14" text-anchor="middle">fileeditor</text></a></g></g><g id="edge23" class="edge"><title>documentsearch-&gt;fileeditor</title><path fill="none" stroke="#000" d="M75.7957,-669.3066C90.5656,-702.1796 125.5813,-772.7019 172.2941,-818.2927 182.2552,-828.0144 194.8248,-836.434 206.7037,-843.1822"/><polygon fill="#000" stroke="#000" points="205.14 -846.316 215.598 -848.011 208.48 -840.164 205.14 -846.316"/></g><g id="node22" class="node"><title>notebook</title><g id="a_node22"><a xlink:href="https://github.com/jupyterlab/jupyterlab/tree/master/packages/notebook" xlink:title="notebook"><ellipse cx="245.088" cy="-372.293" fill="none" stroke="#000" rx="43.592" ry="18"/><text x="245.088" y="-368.593" fill="#000" font-family="Times,serif" font-size="14" text-anchor="middle">notebook</text></a></g></g><g id="edge24" class="edge"><title>documentsearch-&gt;notebook</title><path fill="none" stroke="#000" d="M72.0192,-633.2477C82.059,-590.7614 112.1953,-482.9204 172.2941,-415.2927 181.3847,-405.0633 193.509,-396.5815 205.2516,-389.9311"/><polygon fill="#000" stroke="#000" points="206.929 -393.003 214.1 -385.204 203.631 -386.829 206.929 -393.003"/></g><g id="edge25" class="edge"><title>fileeditor-&gt;docregistry</title><path fill="none" stroke="#000" d="M275.6643,-848.5229C289.9533,-841.335 306.3223,-831.1913 317.8812,-818.2927 364.6359,-766.1188 391.0199,-685.9821 402.3594,-644.0484"/><polygon fill="#000" stroke="#000" points="405.778 -644.811 404.921 -634.251 399.005 -643.04 405.778 -644.811"/></g><g id="edge26" class="edge"><title>notebook-&gt;docregistry</title><path fill="none" stroke="#000" d="M276.0175,-385.2553C290.2174,-392.4341 306.4083,-402.514 317.8812,-415.2927 364.3742,-467.0772 390.8028,-546.5449 402.2366,-588.3569"/><polygon fill="#000" stroke="#000" points="398.882 -589.364 404.824 -598.136 405.65 -587.573 398.882 -589.364"/></g><g id="edge27" class="edge"><title>notebook-&gt;cells</title><path fill="none" stroke="#000" d="M289.0366,-372.2927C314.939,-372.2927 347.3501,-372.2927 371.9648,-372.2927"/><polygon fill="#000" stroke="#000" points="371.995 -375.793 381.995 -372.293 371.995 -368.793 371.995 -375.793"/></g><g id="node23" class="node"><title>extensionmanager</title><g id="a_node23"><a xlink:href="https://github.com/jupyterlab/jupyterlab/tree/master/packages/extensionmanager" xlink:title="extensionmanager"><ellipse cx="1079.088" cy="-232.293" fill="none" stroke="#000" rx="75.287" ry="18"/><text x="1079.088" y="-228.593" fill="#000" font-family="Times,serif" font-size="14" text-anchor="middle">extensionmanager</text></a></g></g><g id="edge28" class="edge"><title>extensionmanager-&gt;apputils</title><path fill="none" stroke="#000" d="M1154.8706,-232.2927C1166.9914,-232.2927 1179.2417,-232.2927 1190.5043,-232.2927"/><polygon fill="#000" stroke="#000" points="1190.538 -235.793 1200.538 -232.293 1190.538 -228.793 1190.538 -235.793"/></g><g id="node24" class="node"><title>filebrowser</title><g id="a_node24"><a xlink:href="https://github.com/jupyterlab/jupyterlab/tree/master/packages/filebrowser" xlink:title="filebrowser"><ellipse cx="68.088" cy="-930.293" fill="none" stroke="#000" rx="50.892" ry="18"/><text x="68.088" y="-926.593" fill="#000" font-family="Times,serif" font-size="14" text-anchor="middle">filebrowser</text></a></g></g><g id="edge29" class="edge"><title>filebrowser-&gt;docmanager</title><path fill="none" stroke="#000" d="M118.8088,-930.2927C138.122,-930.2927 160.3902,-930.2927 180.7978,-930.2927"/><polygon fill="#000" stroke="#000" points="180.959 -933.793 190.959 -930.293 180.959 -926.793 180.959 -933.793"/></g><g id="node25" class="node"><title>htmlviewer</title><g id="a_node25"><a xlink:href="https://github.com/jupyterlab/jupyterlab/tree/master/packages/htmlviewer" xlink:title="htmlviewer"><ellipse cx="245.088" cy="-791.293" fill="none" stroke="#000" rx="51.191" ry="18"/><text x="245.088" y="-787.593" fill="#000" font-family="Times,serif" font-size="14" text-anchor="middle">htmlviewer</text></a></g></g><g id="edge30" class="edge"><title>htmlviewer-&gt;docregistry</title><path fill="none" stroke="#000" d="M276.1295,-776.8058C289.8619,-769.4712 305.6364,-759.6968 317.8812,-748.2927 351.2119,-717.2504 379.1742,-672.0102 395.0277,-643.3741"/><polygon fill="#000" stroke="#000" points="398.235 -644.802 399.93 -634.344 392.083 -641.462 398.235 -644.802"/></g><g id="node26" class="node"><title>imageviewer</title><g id="a_node26"><a xlink:href="https://github.com/jupyterlab/jupyterlab/tree/master/packages/imageviewer" xlink:title="imageviewer"><ellipse cx="245.088" cy="-721.293" fill="none" stroke="#000" rx="56.59" ry="18"/><text x="245.088" y="-717.593" fill="#000" font-family="Times,serif" font-size="14" text-anchor="middle">imageviewer</text></a></g></g><g id="edge31" class="edge"><title>imageviewer-&gt;docregistry</title><path fill="none" stroke="#000" d="M272.6444,-705.5676C286.3654,-697.5983 303.1317,-687.649 317.8812,-678.2927 337.9825,-665.5414 360.0714,-650.5522 377.476,-638.5063"/><polygon fill="#000" stroke="#000" points="379.901 -641.083 386.115 -632.503 375.906 -635.335 379.901 -641.083"/></g><g id="node27" class="node"><title>inspector</title><g id="a_node27"><a xlink:href="https://github.com/jupyterlab/jupyterlab/tree/master/packages/inspector" xlink:title="inspector"><ellipse cx="552.088" cy="-302.293" fill="none" stroke="#000" rx="42.793" ry="18"/><text x="552.088" y="-298.593" fill="#000" font-family="Times,serif" font-size="14" text-anchor="middle">inspector</text></a></g></g><g id="edge32" class="edge"><title>inspector-&gt;rendermime</title><path fill="none" stroke="#000" d="M580.1942,-315.9556C601.7991,-326.4579 631.9306,-341.1052 656.0546,-352.8322"/><polygon fill="#000" stroke="#000" points="654.786 -356.107 665.31 -357.331 657.846 -349.812 654.786 -356.107"/></g><g id="node28" class="node"><title>launcher</title><g id="a_node28"><a xlink:href="https://github.com/jupyterlab/jupyterlab/tree/master/packages/launcher" xlink:title="launcher"><ellipse cx="1079.088" cy="-163.293" fill="none" stroke="#000" rx="40.893" ry="18"/><text x="1079.088" y="-159.593" fill="#000" font-family="Times,serif" font-size="14" text-anchor="middle">launcher</text></a></g></g><g id="edge33" class="edge"><title>launcher-&gt;apputils</title><path fill="none" stroke="#000" d="M1108.4341,-175.9483C1134.6144,-187.2386 1173.0896,-203.831 1201.5121,-216.0882"/><polygon fill="#000" stroke="#000" points="1200.165 -219.319 1210.733 -220.065 1202.937 -212.891 1200.165 -219.319"/></g><g id="node29" class="node"><title>mainmenu</title><g id="a_node29"><a xlink:href="https://github.com/jupyterlab/jupyterlab/tree/master/packages/mainmenu" xlink:title="mainmenu"><ellipse cx="1079.088" cy="-93.293" fill="none" stroke="#000" rx="48.993" ry="18"/><text x="1079.088" y="-89.593" fill="#000" font-family="Times,serif" font-size="14" text-anchor="middle">mainmenu</text></a></g></g><g id="edge34" class="edge"><title>mainmenu-&gt;apputils</title><path fill="none" stroke="#000" d="M1109.1729,-107.52C1123.5974,-115.0529 1140.6929,-125.0659 1154.481,-136.2927 1180.2208,-157.2511 1204.7355,-186.4468 1220.687,-207.125"/><polygon fill="#000" stroke="#000" points="1217.939 -209.294 1226.774 -215.143 1223.515 -205.062 1217.939 -209.294"/></g><g id="node30" class="node"><title>markdownviewer</title><g id="a_node30"><a xlink:href="https://github.com/jupyterlab/jupyterlab/tree/master/packages/markdownviewer" xlink:title="markdownviewer"><ellipse cx="245.088" cy="-651.293" fill="none" stroke="#000" rx="72.588" ry="18"/><text x="245.088" y="-647.593" fill="#000" font-family="Times,serif" font-size="14" text-anchor="middle">markdownviewer</text></a></g></g><g id="edge35" class="edge"><title>markdownviewer-&gt;docregistry</title><path fill="none" stroke="#000" d="M300.6106,-639.4433C318.3992,-635.6469 338.0501,-631.4531 355.684,-627.6898"/><polygon fill="#000" stroke="#000" points="356.755 -631.04 365.804 -625.53 355.294 -624.194 356.755 -631.04"/></g><g id="node31" class="node"><title>mathjax2</title><g id="a_node31"><a xlink:href="https://github.com/jupyterlab/jupyterlab/tree/master/packages/mathjax2" xlink:title="mathjax2"><ellipse cx="696.088" cy="-442.293" fill="none" stroke="#000" rx="44.393" ry="18"/><text x="696.088" y="-438.593" fill="#000" font-family="Times,serif" font-size="14" text-anchor="middle">mathjax2</text></a></g></g><g id="edge36" class="edge"><title>mathjax2-&gt;rendermime-interfaces</title><path fill="none" stroke="#000" d="M740.3652,-442.2927C751.1581,-442.2927 763.1498,-442.2927 775.4197,-442.2927"/><polygon fill="#000" stroke="#000" points="775.772 -445.793 785.771 -442.293 775.771 -438.793 775.772 -445.793"/></g><g id="node32" class="node"><title>nbconvert-css</title><g id="a_node32"><a xlink:href="https://github.com/jupyterlab/jupyterlab/tree/master/packages/nbconvert-css" xlink:title="nbconvert-css"><ellipse cx="68.088" cy="-372.293" fill="none" stroke="#000" rx="59.59" ry="18"/><text x="68.088" y="-368.593" fill="#000" font-family="Times,serif" font-size="14" text-anchor="middle">nbconvert-css</text></a></g></g><g id="edge37" class="edge"><title>nbconvert-css-&gt;notebook</title><path fill="none" stroke="#000" d="M128.0118,-372.2927C148.5088,-372.2927 171.2967,-372.2927 191.2807,-372.2927"/><polygon fill="#000" stroke="#000" points="191.448 -375.793 201.448 -372.293 191.448 -368.793 191.448 -375.793"/></g><g id="node33" class="node"><title>running</title><g id="a_node33"><a xlink:href="https://github.com/jupyterlab/jupyterlab/tree/master/packages/running" xlink:title="running"><ellipse cx="1079.088" cy="-23.293" fill="none" stroke="#000" rx="38.194" ry="18"/><text x="1079.088" y="-19.593" fill="#000" font-family="Times,serif" font-size="14" text-anchor="middle">running</text></a></g></g><g id="edge38" class="edge"><title>running-&gt;apputils</title><path fill="none" stroke="#000" d="M1108.263,-35.0175C1123.4909,-42.2629 1141.5827,-52.774 1154.481,-66.2927 1193.2982,-106.9772 1218.4111,-168.9538 1230.5322,-204.5446"/><polygon fill="#000" stroke="#000" points="1227.284 -205.869 1233.743 -214.267 1233.931 -203.674 1227.284 -205.869"/></g><g id="node34" class="node"><title>settingeditor</title><g id="a_node34"><a xlink:href="https://github.com/jupyterlab/jupyterlab/tree/master/packages/settingeditor" xlink:title="settingeditor"><ellipse cx="409.088" cy="-302.293" fill="none" stroke="#000" rx="54.691" ry="18"/><text x="409.088" y="-298.593" fill="#000" font-family="Times,serif" font-size="14" text-anchor="middle">settingeditor</text></a></g></g><g id="edge39" class="edge"><title>settingeditor-&gt;inspector</title><path fill="none" stroke="#000" d="M463.9662,-302.2927C475.4238,-302.2927 487.4842,-302.2927 498.88,-302.2927"/><polygon fill="#000" stroke="#000" points="499.122 -305.793 509.122 -302.293 499.122 -298.793 499.122 -305.793"/></g><g id="node35" class="node"><title>terminal</title><g id="a_node35"><a xlink:href="https://github.com/jupyterlab/jupyterlab/tree/master/packages/terminal" xlink:title="terminal"><ellipse cx="1079.088" cy="-302.293" fill="none" stroke="#000" rx="40.094" ry="18"/><text x="1079.088" y="-298.593" fill="#000" font-family="Times,serif" font-size="14" text-anchor="middle">terminal</text></a></g></g><g id="edge40" class="edge"><title>terminal-&gt;apputils</title><path fill="none" stroke="#000" d="M1108.0625,-289.6162C1134.2766,-278.1475 1173.0357,-261.1904 1201.6016,-248.6928"/><polygon fill="#000" stroke="#000" points="1203.107 -251.855 1210.866 -244.64 1200.301 -245.442 1203.107 -251.855"/></g><g id="node36" class="node"><title>tooltip</title><g id="a_node36"><a xlink:href="https://github.com/jupyterlab/jupyterlab/tree/master/packages/tooltip" xlink:title="tooltip"><ellipse cx="552.088" cy="-232.293" fill="none" stroke="#000" rx="33.595" ry="18"/><text x="552.088" y="-228.593" fill="#000" font-family="Times,serif" font-size="14" text-anchor="middle">tooltip</text></a></g></g><g id="edge41" class="edge"><title>tooltip-&gt;rendermime</title><path fill="none" stroke="#000" d="M571.6232,-246.9901C581.9508,-255.0212 594.6724,-265.3367 605.3829,-275.2927 630.2793,-298.4352 656.583,-327.0931 674.4161,-347.2384"/><polygon fill="#000" stroke="#000" points="671.815 -349.58 681.047 -354.778 677.071 -344.957 671.815 -349.58"/></g><g id="node37" class="node"><title>vdom</title><g id="a_node37"><a xlink:href="https://github.com/jupyterlab/jupyterlab/tree/master/packages/vdom" xlink:title="vdom"><ellipse cx="245.088" cy="-581.293" fill="none" stroke="#000" rx="31.396" ry="18"/><text x="245.088" y="-577.593" fill="#000" font-family="Times,serif" font-size="14" text-anchor="middle">vdom</text></a></g></g><g id="edge42" class="edge"><title>vdom-&gt;docregistry</title><path fill="none" stroke="#000" d="M274.4076,-587.55C296.9557,-592.3621 328.7198,-599.141 355.7377,-604.907"/><polygon fill="#000" stroke="#000" points="355.321 -608.397 365.831 -607.061 356.782 -601.551 355.321 -608.397"/></g></g></svg>